<svg width="295" height="419" viewBox="0 0 295 419" fill="none" xmlns="http://www.w3.org/2000/svg">
<path d="M168.533 260.899L178.046 263.364L179.549 257.563L169.768 255.028C164.406 253.639 160.735 255.646 159.431 260.679L155.437 276.095C155.252 276.809 155.327 277.482 155.655 278.04C155.983 278.598 156.534 278.99 157.248 279.175L160.88 280.116L163.454 270.146L174.463 272.999L175.949 267.263L164.939 264.411L165.366 262.763C165.932 260.577 166.585 260.394 168.533 260.899ZM137.667 252.394L121.793 255.616C121.068 255.763 120.495 256.126 120.137 256.667C119.778 257.207 119.666 257.876 119.814 258.601L122.978 274.188C123.492 276.723 124.629 278.549 126.356 279.615C127.499 280.319 128.868 280.673 130.447 280.671C131.251 280.67 132.109 280.577 133.02 280.393L142.941 278.379L141.747 272.495L132.095 274.455C130.12 274.856 129.479 274.637 129.028 272.419L128.688 270.746L139.853 268.479L138.672 262.663L127.507 264.929L126.66 260.754L138.861 258.278L137.667 252.394ZM204.93 274.482C205.228 273.574 205.446 272.232 203.922 271.059L202.957 270.316C201.449 269.154 200.257 269.652 199.387 270.217L176.793 284.838L182.699 288.179L197.101 278.865L194.619 287.236L192.434 285.593L188.66 288.297L193.346 291.799L192.257 295.558L197.431 300.293L204.93 274.482ZM82.4282 269.998C100.257 254.608 123.367 246.133 147.5 246.133C171.632 246.133 194.742 254.608 212.571 269.998C214.424 271.598 216.197 273.26 217.891 274.978L221.25 270.831C219.582 269.163 217.847 267.544 216.038 265.983C197.247 249.76 172.905 240.827 147.5 240.827C122.094 240.827 97.7535 249.76 78.9617 265.983C77.1535 267.543 75.4171 269.162 73.7499 270.83L77.1082 274.978C78.8035 273.26 80.5758 271.597 82.4282 269.998ZM147.5 290.002C164.69 290.002 180.534 297.971 189.849 309.562L193.101 305.545C182.845 293.282 166.032 284.991 147.5 284.991C128.968 284.991 112.155 293.282 101.899 305.545L105.152 309.562C114.465 297.971 130.31 290.002 147.5 290.002ZM104.152 287.595C102.933 288.586 101.516 289.07 100.264 288.921C98.6792 288.74 97.7155 288.091 96.1383 286.143L87.0499 274.968L82.1488 278.951L92.0468 291.129C94.1506 293.708 96.5484 295.088 99.3759 295.348C99.7095 295.379 100.04 295.396 100.368 295.399C103.107 295.423 105.651 294.457 108.117 292.462C110.865 290.218 112.372 287.612 112.725 284.497C113.049 281.674 112.186 279.045 110.089 276.458L100.193 264.284L95.2928 268.267L104.378 279.447C105.961 281.389 106.399 282.466 106.252 284.057C106.141 285.31 105.376 286.6 104.152 287.595ZM110.087 331.558H119.282C124.341 331.558 126.256 334.163 126.256 337.687C126.256 341.212 124.341 343.817 119.282 343.817H110.087V331.558ZM127.405 374.161H141.198L129.243 352.63C134.684 349.564 138.515 344.736 138.515 337.687C138.515 327.189 130.008 320.523 119.129 320.523H97.8269V374.161H110.087V354.852H116.679L127.405 374.161ZM93.8134 405.569H107.161V399.118H93.8134V393.251H108.325V386.801H86.6467V418.153H108.684V411.702H93.8134V405.569ZM124.855 405.746L128.529 396.119L132.202 405.746H124.855ZM124.72 386.801L112 418.153H120.107L122.391 412.196H134.664L136.947 418.153H145.055L132.335 386.801H124.72ZM260.442 352.935L266.725 336.462L273.009 352.935H260.442ZM273.237 320.523H260.212L238.45 374.161H252.32L256.228 363.969H277.223L281.131 374.161H295L273.237 320.523ZM159.163 406.925H168.845V409.165C167.277 410.914 164.767 412.258 161.673 412.258C156.25 412.258 152.171 409.076 152.171 402.488C152.171 395.9 156.609 392.716 160.867 392.716C164.767 392.716 167.277 394.599 168.307 398.095L175.166 396.078C173.552 390.207 168.98 386.262 160.956 386.262C152.351 386.262 145 392.449 145 402.488C145 412.527 152.261 418.712 161.045 418.712C167.859 418.712 172.072 416.024 175.524 411.811V401.323H159.163V406.925ZM198.201 405.436C198.201 409.647 196.049 412.245 192.109 412.245C188.167 412.245 186.018 409.647 186.018 405.436V386.805H178.851V405.839C178.851 414.574 184.897 418.693 192.109 418.693C199.321 418.693 205.368 414.528 205.368 405.839V386.805H198.201V405.436ZM216.584 405.568H229.93V399.119H216.584V393.251H231.095V386.801H209.417V418.153H231.453V411.704H216.584V405.568ZM68.4049 386.801H61.2381V418.153H83.2743V411.702H68.4049V386.801ZM90.0752 320.523H77.8164V352.398C77.8164 359.602 74.138 364.046 67.3954 364.046C60.6527 364.046 56.9739 359.602 56.9739 352.398V320.523H44.7145V353.09C44.7145 368.031 55.0579 375.08 67.3954 375.08C79.7318 375.08 90.0752 367.954 90.0752 353.09V320.523ZM215.751 331.558H223.874C229.313 331.558 231.46 334.392 231.46 338.3C231.46 342.208 229.313 345.043 223.874 345.043H215.751V331.558ZM203.491 374.161H215.751V356.078H224.484C235.061 356.078 243.719 349.948 243.719 338.3C243.719 326.653 235.061 320.523 224.484 320.523H203.491V374.161ZM170.247 330.324C177.904 330.324 183.953 335.837 183.953 347.322C183.953 358.809 177.904 364.322 170.247 364.322C162.589 364.322 156.541 358.809 156.541 347.322C156.541 335.837 162.589 330.324 170.247 330.324ZM170.247 375.347C186.019 375.347 196.204 364.704 196.204 347.322C196.204 329.94 186.019 319.297 170.247 319.297C154.472 319.297 144.29 329.94 144.29 347.322C144.29 364.704 154.472 375.347 170.247 375.347ZM12.2589 352.63H35.0917V341.595H12.2589V331.558H37.0846V320.523H0V374.161H37.6981V363.126H12.2589V352.63Z" fill="white"/>
<path d="M254.728 387.044L251.877 394.518L249.027 387.044H247.276V396.396H248.921V390.787L251.065 396.396H252.689L254.834 390.787V396.396H256.479V387.044H254.728ZM238.779 388.525H241.655V396.396H243.278V388.525H246.154V387.05H238.779V388.525Z" fill="white"/>
<path d="M199.721 40.1377L194.464 58.0278C214.274 72.5314 227.173 95.9429 227.173 122.32C227.173 151.145 211.782 176.442 188.788 190.426L194.857 207.4C224.691 190.766 244.872 158.903 244.872 122.321C244.872 87.763 226.864 57.4137 199.721 40.1377ZM67.8725 122.32C67.8725 95.9429 80.7709 72.5314 100.582 58.0278L95.3239 40.1377C68.1811 57.4132 50.1724 87.763 50.1724 122.321C50.1724 158.903 70.3546 190.766 100.188 207.4L106.257 190.426C83.2628 176.442 67.8725 151.145 67.8725 122.32Z" fill="#FF6900"/>
<path d="M158.927 192.68L147.422 141.055L135.918 192.68H158.927ZM114.712 201.53L108.188 219.775H186.658L180.133 201.53H114.712ZM176.968 192.68L158.043 139.755L193.681 18.4822L150.373 0V128.525L164.67 192.68H176.968ZM117.877 192.68H130.175L144.473 128.525V0L101.164 18.4822L136.802 139.755L117.877 192.68Z" fill="white"/>
</svg>
