<svg width="275" height="419" viewBox="0 0 275 419" fill="none" xmlns="http://www.w3.org/2000/svg">
<path d="M156.152 97.8335C159.951 52.7711 178.721 12.4755 180.202 9.02969C173.262 5.46816 165.665 3.52983 163.051 2.84961C153.293 47.9735 155.856 90.7114 156.152 97.8335ZM127.023 122.316C123.974 103.255 117.824 80.9564 117.824 80.9564C125.902 130.362 112.594 169.707 112.594 169.707H163.379C139.822 83.1906 157.787 5.15879 158.478 1.85138C154.566 0.97325 146.502 0.102327 141.219 0.0288289C140.669 73.7704 154.03 122.316 154.03 122.316H148.596C136.77 74.2556 135.592 13.772 135.959 0C126.371 0.0706157 118.761 1.61744 118.761 1.61744L143.173 122.316H137.779C137.779 122.316 114.828 8.8433 113.584 2.69061C104.468 4.85376 98.6433 7.61834 95.7764 9.02969C121.779 56.4104 132.404 122.316 132.404 122.316H127.023ZM110.113 177.879L103.947 194.724H172.032L165.878 177.879H110.113Z" fill="white"/>
<path d="M186.257 28.8681L181.403 45.3845C199.692 58.7736 211.6 80.3873 211.6 104.738C211.6 131.349 197.392 154.703 176.164 167.613L181.767 183.283C209.309 167.927 227.94 138.511 227.94 104.739C227.94 72.8353 211.315 44.8172 186.257 28.8681ZM64.5359 104.738C64.5359 80.3869 76.4435 58.7736 94.7325 45.3845L89.8788 28.8681C64.8208 44.8167 48.1953 72.8353 48.1953 104.739C48.1953 138.511 66.8273 167.927 94.3689 183.283L99.9725 167.613C78.7441 154.703 64.5359 131.349 64.5359 104.738Z" fill="#00BE14"/>
<path d="M157.721 232.866L166.503 235.142L167.891 229.786L158.861 227.446C153.911 226.164 150.522 228.016 149.318 232.663L145.631 246.894C145.46 247.554 145.529 248.175 145.832 248.69C146.135 249.205 146.643 249.567 147.303 249.738L150.656 250.607L153.032 241.403L163.195 244.037L164.567 238.742L154.402 236.108L154.797 234.587C155.319 232.569 155.922 232.4 157.721 232.866ZM129.225 225.014L114.571 227.989C113.902 228.124 113.373 228.46 113.042 228.959C112.711 229.458 112.608 230.075 112.744 230.744L115.665 245.134C116.139 247.475 117.189 249.16 118.784 250.144C119.838 250.795 121.103 251.12 122.561 251.119C123.303 251.118 124.095 251.033 124.935 250.862L134.094 249.003L132.992 243.572L124.082 245.38C122.258 245.751 121.666 245.549 121.25 243.501L120.936 241.956L131.243 239.864L130.153 234.494L119.846 236.586L119.064 232.732L130.328 230.446L129.225 225.014ZM191.322 245.406C191.597 244.567 191.798 243.328 190.391 242.245L189.5 241.559C188.109 240.487 187.008 240.947 186.205 241.468L165.346 254.966L170.798 258.051L184.095 249.451L181.803 257.179L179.786 255.663L176.301 258.159L180.628 261.392L179.623 264.863L184.399 269.234L191.322 245.406ZM78.2297 241.266C94.6894 227.058 116.024 219.234 138.303 219.234C160.583 219.234 181.917 227.058 198.376 241.266C200.087 242.743 201.723 244.278 203.288 245.864L206.389 242.035C204.849 240.495 203.246 239 201.577 237.559C184.229 222.583 161.757 214.336 138.303 214.336C114.849 214.336 92.3778 222.583 75.0294 237.559C73.3601 239 71.757 240.494 70.2179 242.035L73.3183 245.863C74.8833 244.278 76.5195 242.743 78.2297 241.266ZM138.303 259.734C154.173 259.734 168.8 267.091 177.399 277.791L180.402 274.083C170.934 262.762 155.412 255.107 138.303 255.107C121.194 255.107 105.673 262.762 96.2045 274.083L99.2078 277.791C107.806 267.091 122.433 259.734 138.303 259.734ZM98.2845 257.511C97.1595 258.426 95.8514 258.872 94.6951 258.736C93.2324 258.568 92.3427 257.969 90.8867 256.171L82.4964 245.854L77.9717 249.532L87.1095 260.774C89.0517 263.155 91.2652 264.429 93.8756 264.669C94.1835 264.698 94.4886 264.713 94.7912 264.716C97.3204 264.738 99.669 263.846 101.946 262.004C104.482 259.933 105.874 257.527 106.2 254.651C106.498 252.045 105.702 249.618 103.766 247.23L94.6298 235.991L90.1061 239.668L98.493 249.989C99.9548 251.782 100.359 252.776 100.223 254.245C100.122 255.402 99.4149 256.592 98.2845 257.511ZM103.764 298.097H112.253C116.923 298.097 118.691 300.502 118.691 303.756C118.691 307.01 116.923 309.415 112.253 309.415H103.764V298.097ZM119.752 337.428H132.485L121.449 317.55C126.472 314.72 130.009 310.263 130.009 303.756C130.009 294.064 122.155 287.91 112.111 287.91H92.4455V337.428H103.764V319.602H109.849L119.752 337.428ZM88.7404 406.866H101.063V400.91H88.7404V395.495H102.137V389.54H82.1241V418.484H102.469V412.529H88.7404V406.866ZM117.397 407.03L120.789 398.142L124.18 407.03H117.397ZM117.273 389.54L105.53 418.484H113.014L115.123 412.984H126.453L128.561 418.484H136.046L124.303 389.54H117.273ZM242.57 317.833L248.37 302.624L254.172 317.833H242.57ZM254.383 287.91H242.357L222.268 337.428H235.072L238.68 328.019H258.062L261.67 337.428H274.474L254.383 287.91ZM149.071 408.117H158.009V410.186C156.561 411.8 154.244 413.041 151.388 413.041C146.382 413.041 142.616 410.104 142.616 404.022C142.616 397.94 146.713 395.001 150.644 395.001C154.244 395.001 156.561 396.739 157.512 399.966L163.844 398.104C162.354 392.684 158.133 389.043 150.726 389.043C142.782 389.043 135.995 394.753 135.995 404.022C135.995 413.29 142.698 419 150.808 419C157.099 419 160.988 416.518 164.174 412.629V402.946H149.071V408.117ZM185.11 406.744C185.11 410.631 183.123 413.03 179.486 413.03C175.847 413.03 173.863 410.631 173.863 406.744V389.543H167.246V407.115C167.246 415.18 172.827 418.983 179.486 418.983C186.143 418.983 191.726 415.138 191.726 407.115V389.543H185.11V406.744ZM202.081 406.866H214.402V400.911H202.081V395.495H215.477V389.54H195.464V418.484H215.808V412.53H202.081V406.866ZM65.2835 389.54H58.6672V418.484H79.0108V412.529H65.2835V389.54ZM85.2898 287.91H73.9721V317.337C73.9721 323.987 70.5763 328.091 64.3515 328.091C58.1268 328.091 54.7305 323.987 54.7305 317.337V287.91H43.4128V317.975C43.4128 331.769 52.9617 338.277 64.3515 338.277C75.7403 338.277 85.2898 331.698 85.2898 317.975V287.91ZM201.312 298.097H208.811C213.833 298.097 215.815 300.714 215.815 304.321C215.815 307.93 213.833 310.547 208.811 310.547H201.312V298.097ZM189.993 337.428H201.312V320.734H209.374C219.138 320.734 227.132 315.075 227.132 304.321C227.132 293.569 219.138 287.91 209.374 287.91H189.993V337.428ZM159.303 296.959C166.372 296.959 171.956 302.048 171.956 312.651C171.956 323.255 166.372 328.345 159.303 328.345C152.233 328.345 146.65 323.255 146.65 312.651C146.65 302.048 152.233 296.959 159.303 296.959ZM159.303 338.523C173.865 338.523 183.266 328.697 183.266 312.651C183.266 296.604 173.865 286.778 159.303 286.778C144.74 286.778 135.34 296.604 135.34 312.651C135.34 328.697 144.74 338.523 159.303 338.523ZM13.4501 317.55H34.5291V307.363H13.4501V298.097H36.3689V287.91H2.13281V337.428H36.9353V327.241H13.4501V317.55Z" fill="white"/>
<path d="M237.042 389.538L234.41 396.437L231.778 389.538H230.162V398.171H231.681V392.994L233.661 398.171H235.16L237.139 392.994V398.171H238.658V389.538H237.042ZM222.318 390.905H224.973V398.171H226.471V390.905H229.127V389.543H222.318V390.905Z" fill="white"/>
<path d="M153.699 361.542H148.739V354.929H153.699C156.428 354.929 157.46 356.334 157.46 358.236C157.46 360.136 156.428 361.542 153.699 361.542ZM164.074 358.236C164.074 352.572 159.485 348.977 153.616 348.977H142.125V377.91H148.739V367.494H152.294L158.08 377.91H165.52L159.072 366.296C162.007 364.642 164.074 362.038 164.074 358.236ZM14.7398 354.346C17.8377 354.346 19.9029 356.081 20.6878 359.345L27.3786 358.022C26.1815 351.827 21.4315 348.316 14.7811 348.316C6.64443 348.316 0.613281 354.058 0.613281 363.433C0.613281 372.809 6.56133 378.55 14.6163 378.55C21.2657 378.55 26.0162 374.668 27.3786 368.225L20.8526 366.944C20.1926 370.042 18.1687 372.52 14.6163 372.52C10.4447 372.52 7.30448 369.257 7.30448 363.433C7.30448 357.609 10.6095 354.346 14.7398 354.346ZM189.692 371.958H175.969V366.296H188.286V360.343H175.969V354.929H189.361V348.977H169.357V377.91H189.692V371.958ZM86.4027 348.977H79.9556V367.247L68.7546 348.977H61.6037V377.911H68.0518V359.642L79.2523 377.911H86.4027V348.977ZM43.5894 372.603C39.4582 372.603 36.1959 369.629 36.1959 363.433C36.1959 357.237 39.4582 354.264 43.5894 354.264C47.7197 354.264 50.982 357.237 50.982 363.433C50.982 369.629 47.7197 372.603 43.5894 372.603ZM43.5894 348.316C35.08 348.316 29.5873 354.056 29.5873 363.433C29.5873 372.809 35.08 378.55 43.5894 378.55C52.0974 378.55 57.5911 372.809 57.5911 363.433C57.5911 354.056 52.0974 348.316 43.5894 348.316ZM136.639 371.958H122.917V366.296H135.233V360.343H122.917V354.929H136.308V348.977H116.304V377.91H136.639V371.958ZM237.314 354.346C240.411 354.346 242.477 356.081 243.261 359.345L249.952 358.022C248.756 351.827 244.005 348.316 237.355 348.316C229.218 348.316 223.187 354.058 223.187 363.433C223.187 372.809 229.135 378.55 237.19 378.55C243.839 378.55 248.589 374.668 249.952 368.225L243.426 366.944C242.766 370.042 240.742 372.52 237.19 372.52C233.018 372.52 229.879 369.257 229.879 363.433C229.879 357.609 233.183 354.346 237.314 354.346ZM111.076 354.929V348.977H91.0716V377.91H97.6844V366.296H110.001V360.343H97.6844V354.929H111.076ZM260.594 366.296H272.91V360.343H260.594V354.929H273.985V348.977H253.981V377.91H274.316V371.958H260.594V366.296ZM212.418 367.247L201.217 348.977H194.066V377.911H200.514V359.642L211.715 377.911H218.865V348.977H212.418V367.247Z" fill="white"/>
</svg>
