<?xml version="1.0" encoding="UTF-8" standalone="no"?>
<!DOCTYPE svg PUBLIC "-//W3C//DTD SVG 1.1//EN" "http://www.w3.org/Graphics/SVG/1.1/DTD/svg11.dtd">
<svg width="100%" height="100%" viewBox="0 0 570 427" version="1.1" xmlns="http://www.w3.org/2000/svg" xmlns:xlink="http://www.w3.org/1999/xlink" xml:space="preserve" xmlns:serif="http://www.serif.com/" style="fill-rule:evenodd;clip-rule:evenodd;stroke-linejoin:round;stroke-miterlimit:2;">
    <g transform="matrix(1,0,0,1,-100.246,-549.252)">
        <g transform="matrix(1,0,0,1,426.967,936.726)">
            <path d="M0,-348.901L18.282,-344.163L21.171,-355.311L2.373,-360.182C-7.931,-362.852 -14.986,-358.996 -17.492,-349.323L-25.168,-319.698C-25.524,-318.324 -25.379,-317.031 -24.749,-315.96C-24.119,-314.887 -23.06,-314.133 -21.687,-313.778L-14.707,-311.968L-9.761,-331.129L11.396,-325.646L14.252,-336.669L-6.908,-342.151L-6.087,-345.318C-4.999,-349.518 -3.745,-349.871 0,-348.901M-59.319,-365.246L-89.825,-359.053C-91.218,-358.771 -92.319,-358.072 -93.008,-357.034C-93.697,-355.995 -93.912,-354.71 -93.628,-353.317L-87.548,-323.361C-86.56,-318.489 -84.375,-314.98 -81.055,-312.932C-78.86,-311.578 -76.228,-310.9 -73.193,-310.903C-71.648,-310.905 -69.999,-311.083 -68.25,-311.437L-49.183,-315.307L-51.478,-326.614L-70.026,-322.849C-73.822,-322.078 -75.055,-322.499 -75.921,-326.761L-76.574,-329.977L-55.118,-334.332L-57.387,-345.511L-78.843,-341.156L-80.471,-349.179L-57.024,-353.938L-59.319,-365.246ZM69.948,-322.796C70.52,-324.542 70.938,-327.121 68.01,-329.375L66.155,-330.804C63.258,-333.035 60.967,-332.078 59.295,-330.993L15.874,-302.894L27.223,-296.473L54.902,-314.375L50.132,-298.287L45.932,-301.443L38.679,-296.247L47.686,-289.517L45.593,-282.293L55.536,-273.194L69.948,-322.796ZM-165.476,-331.414C-131.212,-360.99 -86.8,-377.278 -40.421,-377.278C5.957,-377.278 50.369,-360.99 84.632,-331.414C88.192,-328.339 91.599,-325.144 94.857,-321.843L101.311,-329.813C98.106,-333.019 94.77,-336.13 91.294,-339.13C55.181,-370.306 8.402,-387.474 -40.421,-387.474C-89.246,-387.474 -136.024,-370.306 -172.138,-339.13C-175.613,-336.131 -178.95,-333.02 -182.154,-329.814L-175.7,-321.844C-172.442,-325.144 -169.036,-328.34 -165.476,-331.414M-40.421,-292.97C-7.385,-292.97 23.063,-277.655 40.964,-255.38L47.215,-263.1C27.505,-286.666 -4.806,-302.601 -40.421,-302.601C-76.037,-302.601 -108.348,-286.666 -128.058,-263.1L-121.806,-255.38C-103.907,-277.655 -73.458,-292.97 -40.421,-292.97M-123.728,-297.596C-126.07,-295.692 -128.793,-294.763 -131.2,-295.047C-134.245,-295.396 -136.097,-296.643 -139.128,-300.387L-156.594,-321.863L-166.013,-314.207L-146.991,-290.804C-142.948,-285.847 -138.34,-283.195 -132.906,-282.696C-132.265,-282.636 -131.63,-282.604 -131,-282.598C-125.735,-282.552 -120.846,-284.409 -116.107,-288.243C-110.826,-292.555 -107.93,-297.563 -107.251,-303.55C-106.63,-308.975 -108.288,-314.028 -112.317,-318.998L-131.336,-342.394L-140.753,-334.74L-123.294,-313.255C-120.251,-309.522 -119.41,-307.453 -119.692,-304.395C-119.904,-301.987 -121.375,-299.509 -123.728,-297.596M-112.321,-213.11L-94.65,-213.11C-84.929,-213.11 -81.248,-208.102 -81.248,-201.33C-81.248,-194.556 -84.929,-189.549 -94.65,-189.549L-112.321,-189.549L-112.321,-213.11ZM-79.04,-131.234L-52.533,-131.234L-75.507,-172.614C-65.051,-178.505 -57.688,-187.783 -57.688,-201.33C-57.688,-221.505 -74.037,-234.315 -94.945,-234.315L-135.883,-234.315L-135.883,-131.234L-112.321,-131.234L-112.321,-168.343L-99.654,-168.343L-79.04,-131.234ZM-143.596,13.314L-117.945,13.314L-117.945,0.916L-143.596,0.916L-143.596,-10.358L-115.708,-10.358L-115.708,-22.754L-157.369,-22.754L-157.369,37.498L-115.017,37.498L-115.017,25.102L-143.596,25.102L-143.596,13.314ZM-83.941,13.656L-76.88,-4.847L-69.822,13.656L-83.941,13.656ZM-84.199,-22.754L-108.645,37.498L-93.065,37.498L-88.676,26.05L-65.09,26.05L-60.702,37.498L-45.12,37.498L-69.565,-22.754L-84.199,-22.754ZM176.63,-172.025L188.704,-203.685L200.781,-172.025L176.63,-172.025ZM201.22,-234.315L176.187,-234.315L134.366,-131.234L161.02,-131.234L168.531,-150.821L208.88,-150.821L216.39,-131.234L243.043,-131.234L201.22,-234.315ZM-18.007,15.919L0.6,15.919L0.6,20.226C-2.415,23.585 -7.238,26.169 -13.184,26.169C-23.605,26.169 -31.444,20.055 -31.444,7.393C-31.444,-5.268 -22.915,-11.386 -14.732,-11.386C-7.238,-11.386 -2.415,-7.768 -0.434,-1.049L12.746,-4.925C9.645,-16.209 0.858,-23.789 -14.561,-23.789C-31.098,-23.789 -45.226,-11.901 -45.226,7.393C-45.226,26.687 -31.272,38.573 -14.39,38.573C-1.295,38.573 6.801,33.407 13.434,25.31L13.434,5.154L-18.007,5.154L-18.007,15.919ZM57.016,13.06C57.016,21.152 52.88,26.145 45.308,26.145C37.732,26.145 33.602,21.152 33.602,13.06L33.602,-22.747L19.829,-22.747L19.829,13.833C19.829,30.62 31.447,38.537 45.308,38.537C59.167,38.537 70.788,30.533 70.788,13.833L70.788,-22.747L57.016,-22.747L57.016,13.06ZM92.344,13.314L117.992,13.314L117.992,0.918L92.344,0.918L92.344,-10.357L120.231,-10.357L120.231,-22.754L78.57,-22.754L78.57,37.498L120.92,37.498L120.92,25.104L92.344,25.104L92.344,13.314ZM-192.426,-22.754L-206.199,-22.754L-206.199,37.498L-163.85,37.498L-163.85,25.102L-192.426,25.102L-192.426,-22.754ZM-150.779,-234.315L-174.339,-234.315L-174.339,-173.057C-174.339,-159.214 -181.408,-150.672 -194.366,-150.672C-207.324,-150.672 -214.394,-159.214 -214.394,-173.057L-214.394,-234.315L-237.954,-234.315L-237.954,-171.729C-237.954,-143.014 -218.076,-129.467 -194.366,-129.467C-170.658,-129.467 -150.779,-143.163 -150.779,-171.729L-150.779,-234.315ZM90.743,-213.11L106.353,-213.11C116.807,-213.11 120.933,-207.661 120.933,-200.152C120.933,-192.641 116.807,-187.193 106.353,-187.193L90.743,-187.193L90.743,-213.11ZM67.181,-131.234L90.743,-131.234L90.743,-165.987L107.526,-165.987C127.852,-165.987 144.492,-177.766 144.492,-200.152C144.492,-222.536 127.852,-234.315 107.526,-234.315L67.181,-234.315L67.181,-131.234ZM3.293,-215.479C18.009,-215.479 29.633,-204.885 29.633,-182.812C29.633,-160.739 18.009,-150.143 3.293,-150.143C-11.424,-150.143 -23.047,-160.739 -23.047,-182.812C-23.047,-204.885 -11.424,-215.479 3.293,-215.479M3.293,-128.955C33.606,-128.955 53.178,-149.409 53.178,-182.812C53.178,-216.218 33.606,-236.671 3.293,-236.671C-27.022,-236.671 -46.591,-216.218 -46.591,-182.812C-46.591,-149.409 -27.022,-128.955 3.293,-128.955M-300.327,-172.614L-256.447,-172.614L-256.447,-193.82L-300.327,-193.82L-300.327,-213.11L-252.617,-213.11L-252.617,-234.315L-323.886,-234.315L-323.886,-131.234L-251.438,-131.234L-251.438,-152.44L-300.327,-152.44L-300.327,-172.614Z" style="fill:white;fill-rule:nonzero;"/>
        </g>
        <g transform="matrix(1,0,0,1,592.443,931.951)">
            <path d="M0,-17.972L-5.479,-3.609L-10.957,-17.972L-14.322,-17.972L-14.322,0L-11.16,0L-11.16,-10.778L-7.039,0L-3.918,0L0.203,-10.778L0.203,0L3.365,0L3.365,-17.972L0,-17.972ZM-30.65,-15.125L-25.123,-15.125L-25.123,0L-22.005,0L-22.005,-15.125L-16.477,-15.125L-16.477,-17.96L-30.65,-17.96L-30.65,-15.125Z" style="fill:white;fill-rule:nonzero;"/>
        </g>
        <g transform="matrix(1,0,0,1,418.922,863.564)">
            <path d="M0,-7.873L-10.325,-7.873L-10.325,-21.64L0,-21.64C5.681,-21.64 7.831,-18.714 7.831,-14.756C7.831,-10.799 5.681,-7.873 0,-7.873M21.598,-14.756C21.598,-26.545 12.045,-34.03 -0.172,-34.03L-24.092,-34.03L-24.092,26.2L-10.325,26.2L-10.325,4.518L-2.924,4.518L9.121,26.2L24.609,26.2L11.186,2.023C17.295,-1.42 21.598,-6.841 21.598,-14.756M-289.269,-22.852C-282.82,-22.852 -278.521,-19.241 -276.887,-12.447L-262.959,-15.2C-265.451,-28.097 -275.339,-35.406 -289.183,-35.406C-306.121,-35.406 -318.676,-23.453 -318.676,-3.936C-318.676,15.581 -306.294,27.533 -289.526,27.533C-275.684,27.533 -265.795,19.451 -262.959,6.038L-276.544,3.373C-277.918,9.821 -282.131,14.98 -289.526,14.98C-298.21,14.98 -304.747,8.188 -304.747,-3.936C-304.747,-16.06 -297.867,-22.852 -289.269,-22.852M74.928,13.81L46.361,13.81L46.361,2.023L72.001,2.023L72.001,-10.368L46.361,-10.368L46.361,-21.64L74.238,-21.64L74.238,-34.029L32.596,-34.029L32.596,26.2L74.928,26.2L74.928,13.81ZM-140.089,-34.029L-153.51,-34.029L-153.51,4.003L-176.827,-34.029L-191.713,-34.029L-191.713,26.202L-178.29,26.202L-178.29,-11.829L-154.974,26.202L-140.089,26.202L-140.089,-34.029ZM-229.213,15.152C-237.813,15.152 -244.604,8.961 -244.604,-3.936C-244.604,-16.834 -237.813,-23.024 -229.213,-23.024C-220.615,-23.024 -213.824,-16.834 -213.824,-3.936C-213.824,8.961 -220.615,15.152 -229.213,15.152M-229.213,-35.406C-246.927,-35.406 -258.361,-23.456 -258.361,-3.936C-258.361,15.581 -246.927,27.533 -229.213,27.533C-211.502,27.533 -200.066,15.581 -200.066,-3.936C-200.066,-23.456 -211.502,-35.406 -229.213,-35.406M-35.513,13.81L-64.078,13.81L-64.078,2.023L-38.439,2.023L-38.439,-10.368L-64.078,-10.368L-64.078,-21.64L-36.201,-21.64L-36.201,-34.029L-77.844,-34.029L-77.844,26.2L-35.513,26.2L-35.513,13.81ZM174.061,-22.852C180.509,-22.852 184.809,-19.241 186.442,-12.447L200.37,-15.2C197.879,-28.097 187.99,-35.406 174.146,-35.406C157.208,-35.406 144.653,-23.453 144.653,-3.936C144.653,15.581 157.035,27.533 173.803,27.533C187.645,27.533 197.533,19.451 200.37,6.038L186.785,3.373C185.411,9.821 181.198,14.98 173.803,14.98C165.118,14.98 158.583,8.188 158.583,-3.936C158.583,-16.06 165.462,-22.852 174.061,-22.852M-88.727,-21.64L-88.727,-34.029L-130.37,-34.029L-130.37,26.2L-116.604,26.2L-116.604,2.023L-90.965,2.023L-90.965,-10.368L-116.604,-10.368L-116.604,-21.64L-88.727,-21.64ZM222.522,2.023L248.161,2.023L248.161,-10.368L222.522,-10.368L222.522,-21.64L250.398,-21.64L250.398,-34.029L208.756,-34.029L208.756,26.2L251.088,26.2L251.088,13.81L222.522,13.81L222.522,2.023ZM122.236,4.003L98.919,-34.029L84.033,-34.029L84.033,26.202L97.456,26.202L97.456,-11.829L120.772,26.202L135.657,26.202L135.657,-34.029L122.236,-34.029L122.236,4.003Z" style="fill:white;fill-rule:nonzero;"/>
        </g>
    </g>
</svg>
