<svg width="1172" height="382" viewBox="0 0 1172 382" fill="none" xmlns="http://www.w3.org/2000/svg">
<path d="M602.767 221.308H631.191L580.936 380.62H559.105L527.458 290.338L491.415 380.474H469.584L420.794 221.161H455.665L486.433 326.392L515.443 251.5L505.334 221.308H540.058L572.291 326.539L602.767 221.308ZM687.306 315.254H735.071L740.931 290.045H687.306V246.37H745.766L753.385 221.161H655.659V380.474H750.601L756.462 355.265H687.453V315.254H687.306ZM817.852 315.254H865.616L871.477 290.045H817.852V246.37H876.166L883.784 221.161H786.058V380.474H881.001L886.861 355.265H817.852V315.254ZM1032.35 221.308H1000.85L948.251 294.002V221.308H916.457V380.62H948.251V315.84H959.387L1002.32 380.62H1037.63L980.192 293.27L1032.35 221.308ZM249.663 162.537H221.239L282.483 6.30213L304.314 1.0259L367.023 162.537H332.298L316.475 120.474H265.487L249.663 162.537ZM274.131 96.2909H307.391L290.688 51.5896L274.131 96.2909ZM417.864 92.1872L423.724 94.6787C438.229 100.981 449.071 107.869 449.071 120.62C449.071 133.518 436.618 139.673 420.94 139.673C406.728 139.673 390.905 133.811 377.718 126.189L375.667 155.209C390.172 161.511 404.824 165.321 421.673 165.321C455.225 165.321 479.84 150.079 479.84 117.542C479.84 96.7306 469.73 82.221 440.427 68.2977L430.317 63.4611C422.699 59.9436 416.105 56.5727 412.003 52.469C409.219 49.6843 407.754 46.1669 407.754 42.7959C407.754 31.6573 417.131 25.062 432.369 25.062C443.797 25.062 457.716 28.8726 467.972 35.0282L470.316 9.37993C459.181 3.51747 443.65 0 428.852 0C401.161 0 375.081 14.9493 375.081 44.4081C374.934 72.6945 397.498 83.5401 417.864 92.1872ZM538.153 92.1872L544.014 94.6787C558.519 100.981 569.361 107.869 569.361 120.62C569.361 133.518 556.907 139.673 541.23 139.673C527.018 139.673 511.194 133.811 498.008 126.189L495.957 155.209C510.462 161.511 525.113 165.321 541.963 165.321C575.515 165.321 600.129 150.079 600.129 117.542C600.129 96.7306 590.02 82.221 560.717 68.2977L550.607 63.4611C542.988 59.9436 536.395 56.5727 532.293 52.469C529.509 49.6843 528.044 46.1669 528.044 42.7959C528.044 31.6573 537.421 25.062 552.658 25.062C564.087 25.062 578.006 28.8726 588.262 35.0282L590.459 9.37993C579.324 3.51747 563.794 0 548.995 0C521.304 0 495.224 14.9493 495.224 44.4081C495.224 72.6945 517.934 83.5401 538.153 92.1872ZM622.546 162.537H654.34V3.3709H622.546V162.537ZM742.836 68.2977L732.726 63.4611C725.108 59.9436 718.514 56.5727 714.412 52.469C711.628 49.6843 710.163 46.1669 710.163 42.7959C710.163 31.6573 719.54 25.062 734.778 25.062C746.206 25.062 760.125 28.8726 770.381 35.0282L772.725 9.37993C761.59 3.51747 746.059 0 731.261 0C703.57 0 677.49 14.9493 677.49 44.4081C677.49 72.5479 700.053 83.5401 720.419 92.1872L726.28 94.6787C740.785 100.981 751.627 107.869 751.627 120.62C751.627 133.518 739.173 139.673 723.496 139.673C709.284 139.673 693.46 133.811 680.274 126.189L678.222 155.209C692.728 161.511 707.379 165.321 724.228 165.321C757.781 165.321 782.395 150.079 782.395 117.542C782.249 96.8771 772.139 82.3676 742.836 68.2977ZM794.117 3.3709L790.747 28.5795H838.511V162.683H870.305V28.4329H915.725L919.095 3.22433H794.117V3.3709ZM970.961 92.1872L976.822 94.6787C991.327 100.981 1002.17 107.869 1002.17 120.62C1002.17 133.518 989.715 139.673 974.038 139.673C959.826 139.673 944.002 133.811 930.816 126.189L928.765 155.209C943.27 161.511 957.921 165.321 974.771 165.321C1008.32 165.321 1032.94 150.079 1032.94 117.542C1032.94 96.7306 1022.83 82.221 993.525 68.2977L983.415 63.4611C975.796 59.9436 969.203 56.5727 965.101 52.469C962.317 49.6843 960.852 46.1669 960.852 42.7959C960.852 31.6573 970.229 25.062 985.466 25.062C996.895 25.062 1010.81 28.8726 1021.07 35.0282L1023.41 9.37993C1012.28 3.51747 996.748 0 981.95 0C954.259 0 928.179 14.9493 928.179 44.4081C928.032 72.6945 950.596 83.5401 970.961 92.1872ZM269.882 291.071C249.517 291.071 238.528 275.096 238.528 255.31C238.528 235.671 249.517 219.549 269.882 219.549C290.248 219.549 301.237 235.671 301.237 255.31C301.09 274.949 290.102 291.071 269.882 291.071ZM286.292 255.31C286.292 241.094 280.725 230.688 269.882 230.688C259.04 230.688 253.473 240.947 253.473 255.31C253.473 269.527 259.04 279.786 269.882 279.786C280.725 279.786 286.292 269.673 286.292 255.31ZM356.62 250.767H333.47V231.86H358.671L361.894 221.015H319.551V289.899H333.324V261.612H353.983L356.62 250.767ZM202.339 323.022H222.997V381.06H236.77V323.022H256.403L257.868 312.176H203.804L202.339 323.022ZM314.57 341.928H288.05V312.176H274.278V381.06H288.05V352.774H314.57V381.06H328.342V312.176H314.57V341.928ZM364.385 352.92H385.044L387.535 342.075H364.385V323.022H389.733L392.956 312.176H350.613V381.06H391.637L394.128 370.214H364.239V352.92H364.385ZM87.7631 297.08C87.177 297.373 86.884 298.106 87.0305 298.692C87.3235 299.425 88.0561 299.865 88.7887 299.572L147.249 280.226C140.802 288.873 134.062 297.373 126.883 305.434C115.894 317.745 103.88 329.177 90.8399 339.143C77.8 349.256 63.7344 357.903 48.6433 364.645C46.7386 365.524 44.8339 366.257 42.9292 366.99C41.0245 367.723 39.1198 368.602 37.215 369.188L31.3544 371.094L28.4241 372.12L25.4938 372.999L19.4866 374.611L13.4795 375.93L10.4026 376.517C9.37703 376.663 8.35141 376.81 7.3258 377.103C5.27458 377.542 3.22334 377.982 1.31863 378.715H1.17213C0.586068 378.862 0.146516 379.448 0 380.181C0 381.06 0.586073 381.793 1.61168 381.939C3.80942 382.086 5.86064 381.939 8.05838 381.793C9.08399 381.646 10.1096 381.646 11.2817 381.5L14.3586 380.913L20.6588 379.887L26.9589 378.422L30.0358 377.689L33.1126 376.81L39.2663 375.051C41.3175 374.465 43.3687 373.732 45.2734 372.999C47.3246 372.266 49.3759 371.68 51.2806 370.801C67.1043 364.498 82.1955 356.144 96.1145 346.178C110.034 336.212 122.927 324.927 134.795 312.616C142.12 304.848 149.153 296.787 155.746 288.433L154.428 347.351C154.428 348.084 154.867 348.67 155.6 348.816C156.333 348.963 157.065 348.523 157.212 347.644L172.596 266.595L175.673 250.62L161.168 258.241L87.7631 297.08ZM1171.25 101.274L1081.73 59.3574L1064 51.0034L1068.54 70.0564L1091.84 166.64C1091.98 167.373 1092.72 167.959 1093.45 167.813C1094.33 167.813 1095.06 166.934 1094.91 166.054L1089.35 87.2041C1096.53 95.9978 1103.27 105.231 1109.27 114.758C1118.36 128.828 1126.12 143.777 1132.42 159.166C1138.87 174.555 1143.85 190.53 1147.51 206.945C1149.27 215.152 1150.74 223.36 1151.91 231.567C1152.49 235.671 1152.93 239.921 1153.37 244.025C1153.52 246.077 1153.67 248.129 1154.11 250.327C1154.55 252.379 1154.84 254.431 1154.99 256.629V256.776C1155.13 259.121 1157.18 260.733 1159.38 260.586C1161.58 260.44 1163.34 258.388 1163.19 256.19C1163.04 253.991 1163.04 251.939 1163.19 249.741C1163.34 247.542 1163.19 245.49 1162.9 243.292C1162.46 239.042 1162.02 234.645 1161.43 230.395C1160.26 221.894 1158.79 213.394 1156.89 204.893C1153.08 188.038 1147.95 171.477 1141.21 155.502C1134.47 139.527 1126.41 124.284 1117.04 109.775C1111.18 100.834 1105.02 92.3337 1098.28 84.1263L1169.93 103.766C1170.66 103.912 1171.4 103.619 1171.69 103.033C1172.27 102.446 1171.98 101.567 1171.25 101.274ZM143.732 192.582L156.626 205.04L158.091 187.159L165.563 97.3168C165.563 96.7306 165.27 96.2909 164.684 96.1444C164.098 95.9978 163.512 96.2909 163.365 96.8772L146.369 161.804C143.439 154.036 140.655 146.122 138.165 138.207C133.916 124.431 130.399 110.361 128.055 96.1444C125.711 81.9279 124.392 67.5648 124.539 53.0552C124.685 45.8737 124.978 38.6922 125.857 31.5107C126.443 24.3292 128.055 17.2943 129.081 10.1127C129.374 8.64712 128.495 7.18152 126.883 6.74184C125.271 6.30215 123.513 7.18151 123.073 8.79369C122.487 10.5524 122.048 12.3111 121.608 14.2164C121.169 15.9752 120.729 17.8805 120.436 19.6392L119.411 25.062C119.117 26.9673 118.824 28.726 118.531 30.6313C117.359 37.9594 116.773 45.4341 116.334 52.9087C115.601 67.858 116.334 82.8073 118.238 97.61C120.143 112.413 123.073 127.069 126.883 141.432C128.934 149.2 131.425 156.967 133.916 164.735L80.2908 129.121C79.9977 128.974 79.5582 128.974 79.2652 129.267C78.9721 129.56 78.9721 130.147 79.2652 130.44L143.732 192.582Z" fill="white"/>
</svg>
