<svg width="712" height="383" viewBox="0 0 712 383" fill="none" xmlns="http://www.w3.org/2000/svg">
<path d="M102.498 223.67H82.7633L80.1853 156.107L53.6939 208.469H46.7599L18.4906 154.951L15.9126 223.67H0L4.00037 122.325H22.9355L51.5604 178.065L80.1853 122.325H97.6092L102.498 223.67ZM122.056 172.909C122.056 143.928 138.235 120.192 168.105 120.192C197.974 120.192 214.153 143.928 214.153 172.909C214.153 201.89 197.974 225.448 168.105 225.448C138.235 225.448 122.056 201.89 122.056 172.909ZM143.925 172.909C143.925 193.889 152.192 209.002 168.194 209.002C184.195 209.002 192.462 193.978 192.462 172.909C192.462 151.929 184.195 136.727 168.194 136.727C152.103 136.727 143.925 151.929 143.925 172.909ZM237.8 122.325L233.8 223.67H249.623L252.201 154.951L280.471 208.469H287.405L313.896 156.107L316.296 219.225C322.875 218.337 329.364 217.625 335.854 217.003L331.32 122.236H313.896L285.36 178.065L256.735 122.325H237.8ZM422.706 220.559L425.729 207.669H381.725V182.155H412.128L415.861 166.153H381.725V138.327H418.884L423.773 122.325H361.545V215.847C362.79 215.847 363.945 215.847 365.19 215.847C383.68 215.847 403.06 217.448 422.706 220.559ZM462.71 159.663L511.692 223.67H526.36V122.325H509.025V189.889L459.243 122.325H445.375V223.67H462.71V159.663ZM626.103 122.325H546.54L544.407 138.327H574.809V223.67H594.989V138.327H624.058L626.103 122.325ZM686.109 163.752L679.619 160.641C674.73 158.418 670.552 156.285 667.974 153.707C666.196 151.929 665.218 149.706 665.218 147.573C665.218 140.461 671.174 136.283 680.864 136.283C688.153 136.283 697.043 138.683 703.533 142.594L704.955 126.237C697.843 122.503 687.976 120.281 678.641 120.281C661.04 120.281 644.327 129.793 644.327 148.551C644.327 166.508 658.728 173.442 671.619 178.954L675.352 180.554C684.598 184.555 691.531 189 691.531 197.001C691.531 205.268 683.62 209.091 673.574 209.091C664.507 209.091 654.461 205.357 646.105 200.557L644.772 218.959C654.017 222.959 663.351 225.448 674.019 225.448C695.354 225.448 711 215.758 711 195.045C711.178 181.799 704.688 172.642 686.109 163.752ZM45.5154 16.7131H45.9599L77.5184 78.0535H82.0521L111.655 16.7131H112.099L115.566 93.3442H125.078L120.1 1.77798H111.655L80.8076 65.3409L47.9156 1.77798H39.4704L35.5589 93.3442H43.1152L45.5154 16.7131ZM145.347 93.4331H136.991L171.572 3.20037L177.883 0.711194L213.62 93.4331H204.108L193.885 67.03H155.037L145.347 93.4331ZM157.526 60.7182H192.018L174.772 15.024L157.526 60.7182ZM239.845 93.4331H248.912V8.26763H277.359L279.404 1.86688H212.553L210.509 8.26763H239.845V93.4331ZM327.586 95.0333C340.832 95.0333 350.7 90.2327 353.544 88.188L351.944 81.7873C346.255 85.2544 338.965 88.5436 328.831 88.5436C306.162 88.5436 295.494 71.2972 295.494 48.8057C295.494 22.8471 307.94 6.48964 328.653 6.48964C337.809 6.48964 345.277 9.69002 349.988 13.0682L351.411 6.31184C347.321 3.37817 338.521 0 328.031 0C302.162 0 285.271 20.0023 285.271 49.6947C285.449 78.2313 302.606 95.0333 327.586 95.0333ZM379.591 51.9171H428.84V93.4331H437.908V1.86688H428.84V45.5164H379.591V1.86688H370.524V93.4331H379.591V51.9171ZM485.29 93.4331H459.421V1.86688H480.489C497.024 1.86688 506.003 3.91157 513.204 8.26763C525.738 16.0019 531.872 30.9369 531.872 47.5611C531.872 65.3409 524.138 80.0982 512.581 87.1212C505.914 91.0328 495.069 93.4331 485.29 93.4331ZM482.534 86.9434C493.735 86.9434 504.758 84.721 511.87 77.8757C518.626 71.0305 521.649 61.3405 521.649 48.2723C521.649 36.182 518.893 25.5141 512.492 18.6688C505.914 11.5569 495.158 8.26763 481.645 8.26763H468.488V86.9434H482.534ZM548.229 93.4331H539.873L574.454 3.20037L580.766 0.711194L616.502 93.4331H606.99L596.767 67.03H557.919L548.229 93.4331ZM560.408 60.7182H594.9L577.654 15.024L560.408 60.7182ZM651.528 93.4331V57.9623L679.708 1.86688H671.53L648.061 50.0503L623.792 1.86688H613.302L642.549 58.0512V93.4331H651.528ZM380.925 236.116C370.701 237.805 361.189 241.717 352.122 246.429C354.167 250.696 356.389 255.23 358.967 260.03C361.1 264.12 363.323 268.476 365.901 273.187C391.059 274.521 415.95 278.61 440.397 284.122C442.975 284.744 445.642 285.367 448.22 285.989C462.888 282.255 477.556 278.521 492.224 274.699C489.201 270.965 485.379 267.498 481.378 264.564C478.267 262.253 475.067 260.297 472.044 258.875C471.866 258.786 471.778 258.608 471.866 258.43C471.955 258.252 472.133 258.252 472.311 258.252C476.311 259.852 480.312 262.075 484.134 264.653C488.135 267.409 491.957 270.698 495.513 274.521L496.847 276.032L494.802 276.565C481.556 280.299 468.222 283.944 454.887 287.589C474.356 292.478 495.424 298.79 513.826 305.547L514.893 305.902V306.969C514.804 321.726 508.759 340.217 503.514 353.997L502.98 355.33L546.362 318.081L547.162 317.37L548.14 317.815C561.742 325.016 578.365 336.306 589.922 348.307C590.011 348.396 590.011 348.663 589.922 348.752C589.833 348.841 589.566 348.841 589.477 348.752C577.921 337.817 561.653 327.771 547.696 321.104L500.491 360.753L496.402 364.22L498.447 359.242L501.025 352.93C506.003 339.417 511.337 322.526 511.692 308.036C493.38 301.546 470.266 294.79 447.42 289.456C425.729 295.323 403.949 301.191 382.258 306.969C389.014 321.193 403.327 347.24 411.061 361.109L412.928 364.398L409.461 362.887C387.859 354.263 351.055 338.706 330.342 327.327C309.362 335.239 274.248 352.663 254.513 362.798L251.49 364.398L252.735 361.286C258.602 345.107 268.47 321.993 277.982 307.591C263.758 298.612 258.335 294.968 249.001 288.745C230.688 294.168 212.375 301.191 197.796 307.947C197.974 322.26 201.886 338.706 205.619 352.397L207.575 358.708L209.442 364.398L205.441 360.042L170.149 321.193C156.548 329.016 139.835 342.973 129.612 353.197L126.679 356.041C124.723 357.997 122.856 359.953 120.989 361.909H120.9L120.811 361.998H120.722H120.634V361.909L120.545 361.82V361.731V361.642L125.79 354.263C131.301 347.507 143.569 329.549 168.016 307.502C185.884 291.412 205.797 277.454 227.044 266.075C231.844 263.497 236.822 261.008 241.889 258.697C278.782 241.628 320.741 231.76 366.168 231.671C422.617 231.76 468.488 246.606 503.958 265.364C563.431 296.657 593.656 338.706 595.523 340.04L601.123 347.063L606.546 354.263L611.791 361.642C611.88 361.82 611.88 361.998 611.702 362.087C611.524 362.175 611.346 362.175 611.257 361.998L605.835 354.797L600.234 347.774C575.254 315.77 538.717 285.633 496.047 265.009C487.957 261.097 479.601 257.541 471.155 254.341C443.419 244.206 413.105 237.717 380.925 236.116ZM250.512 284.389C273.803 277.366 292.65 274.343 307.94 273.187C313.007 268.565 319.052 263.764 325.453 259.23C333.098 253.807 341.365 248.829 349.277 244.917C348.21 242.073 347.144 239.228 346.077 236.383C316.296 238.339 287.583 244.562 260.913 254.518C257.269 255.852 253.713 257.274 250.157 258.786C242.689 261.897 235.4 265.275 228.199 269.009C207.042 279.944 187.218 293.545 169.171 309.28C144.014 331.15 128.545 352.219 126.234 354.975L125.167 356.308C125.345 356.041 125.612 355.864 125.79 355.597L128.634 352.574C138.413 342.084 155.837 326.171 169.527 317.904L170.594 317.281L171.483 318.259L203.13 353.908L202.952 353.286C198.952 339.417 194.418 321.371 194.418 306.969V305.991L195.307 305.547C209.086 298.879 226.955 291.678 244.734 286.078C244.112 285.633 243.49 285.278 242.867 284.833C238.867 282.077 234.866 279.232 230.866 276.388L229.355 275.321L230.866 274.343C239.134 268.653 249.446 262.786 259.58 258.697C261.447 257.986 263.225 257.274 265.003 256.652C265.18 256.563 265.358 256.652 265.447 256.83C265.536 257.008 265.447 257.185 265.269 257.274C264.114 257.719 262.958 258.163 261.891 258.697C252.024 262.964 242.334 269.009 233.977 275.321C237.533 277.721 241.089 280.033 244.734 282.344C246.068 283.233 247.49 284.033 248.823 284.922C249.357 284.833 249.89 284.566 250.512 284.389ZM350.255 247.495C344.032 250.874 337.632 255.052 331.498 259.497C323.675 265.186 316.296 271.409 310.429 277.099L309.807 277.721L309.007 277.81C289.805 278.966 271.403 282.611 253.09 287.856C261.625 293.19 268.292 297.279 282.16 305.369L284.293 306.613L282.782 308.658C272.826 322.082 262.691 343.951 256.291 359.331C275.759 349.018 309.185 331.861 329.631 323.86L330.52 323.504L331.32 323.949C350.966 335.239 385.814 350.619 406.705 359.42C398.882 346.351 383.68 320.571 376.924 306.88L375.769 304.391L378.435 303.769C398.971 298.701 419.595 293.456 440.13 288.3C439.952 288.3 439.775 288.211 439.597 288.211C414.706 282.788 389.37 278.966 364.479 277.899L363.145 277.81L362.612 276.654C360.3 271.498 357.9 265.898 355.5 260.208C353.633 255.852 351.855 251.674 350.255 247.495ZM374.88 235.85C371.857 235.761 368.835 235.761 365.812 235.761C359.589 235.761 353.455 235.939 347.233 236.294C348.388 238.872 349.633 241.539 350.877 244.117C358.523 240.561 366.612 237.539 374.88 235.85ZM633.215 380.044C641.216 379.866 481.29 378.977 466.177 378.889C466.088 378.889 229.799 378.355 98.6759 380.044C98.4981 380.044 98.3203 380.222 98.3203 380.4C98.3203 380.578 98.4981 380.755 98.6759 380.755C159.304 381.555 333.987 382.356 466.177 381.911C601.034 381.289 633.659 380.844 633.215 380.755C633.393 380.755 633.57 380.578 633.57 380.4C633.482 380.222 633.393 380.044 633.215 380.044Z" fill="white"/>
</svg>
